0
SECTION
2
HEADER
9
$INSUNITS
70
4
0
ENDSEC
0
SECTION
2
TABLES
0
TABLE
2
LAYER
0
LAYER
2
A-WALL
70
0
0
LAYER
2
A-ROOM
70
0
0
LAYER
2
A-DOOR
70
0
0
LAYER
2
A-GLAZ
70
0
0
LAYER
2
A-FURN
70
0
0
ENDTAB
0
ENDSEC
0
SECTION
2
BLOCKS
0
BLOCK
2
DOOR_900
70
0
10
0
20
0
0
LWPOLYLINE
5
B01
8
0
90
4
70
1
10
0
20
0
10
900
20
0
10
900
20
50
10
0
20
50
0
ENDBLK
5
X01
8
0
0
BLOCK
2
DOOR_750
70
0
10
0
20
0
0
LWPOLYLINE
5
B02
8
0
90
4
70
1
10
0
20
0
10
750
20
0
10
750
20
50
10
0
20
50
0
ENDBLK
5
X02
8
0
0
BLOCK
2
WIN_1200
70
0
10
0
20
0
0
LWPOLYLINE
5
B03
8
0
90
4
70
1
10
0
20
0
10
1200
20
0
10
1200
20
50
10
0
20
50
0
ENDBLK
5
X03
8
0
0
BLOCK
2
WIN_1500
70
0
10
0
20
0
0
LWPOLYLINE
5
B04
8
0
90
4
70
1
10
0
20
0
10
1500
20
0
10
1500
20
50
10
0
20
50
0
ENDBLK
5
X04
8
0
0
BLOCK
2
SOFA_3S
70
0
10
0
20
0
0
LWPOLYLINE
5
B05
8
0
90
4
70
1
10
0
20
0
10
2100
20
0
10
2100
20
900
10
0
20
900
0
ENDBLK
5
X05
8
0
0
BLOCK
2
SOFA_2S
70
0
10
0
20
0
0
LWPOLYLINE
5
B06
8
0
90
4
70
1
10
0
20
0
10
1500
20
0
10
1500
20
900
10
0
20
900
0
ENDBLK
5
X06
8
0
0
BLOCK
2
TABLE_DIN
70
0
10
0
20
0
0
LWPOLYLINE
5
B07
8
0
90
4
70
1
10
0
20
0
10
1600
20
0
10
1600
20
900
10
0
20
900
0
ENDBLK
5
X07
8
0
0
BLOCK
2
BED_QN
70
0
10
0
20
0
0
LWPOLYLINE
5
B08
8
0
90
4
70
1
10
0
20
0
10
1600
20
0
10
1600
20
2000
10
0
20
2000
0
ENDBLK
5
X08
8
0
0
ENDSEC
0
SECTION
2
ENTITIES
0
HATCH
5
101
8
A-WALL
92
2
10
0
20
-1150
10
77000
20
-1150
10
77000
20
1150
10
0
20
1150
0
HATCH
5
103
8
A-WALL
92
2
10
0
20
34850
10
77000
20
34850
10
77000
20
37150
10
0
20
37150
0
HATCH
5
105
8
A-WALL
92
2
10
1150
20
0
10
1150
20
36000
10
-1150
20
36000
10
-1150
20
0
0
HATCH
5
107
8
A-WALL
92
2
10
78150
20
0
10
78150
20
36000
10
75850
20
36000
10
75850
20
0
0
HATCH
5
109
8
A-WALL
92
2
10
46150
20
0
10
46150
20
36000
10
43850
20
36000
10
43850
20
0
0
LWPOLYLINE
5
10A
8
A-ROOM
70
1
10
0
20
0
10
45000
20
0
10
45000
20
36000
10
0
20
36000
0
LWPOLYLINE
5
10C
8
A-ROOM
70
1
10
45000
20
0
10
77000
20
0
10
77000
20
36000
10
45000
20
36000
0
INSERT
5
10E
8
A-DOOR
2
DOOR_900
10
20000
20
0
0
INSERT
5
10F
8
A-DOOR
2
DOOR_750
10
45000
20
18000
0
INSERT
5
110
8
A-GLAZ
2
WIN_1200
10
15000
20
36000
0
INSERT
5
111
8
A-GLAZ
2
WIN_1500
10
60000
20
36000
0
INSERT
5
112
8
A-FURN
2
SOFA_3S
10
12000
20
9000
0
INSERT
5
113
8
A-FURN
2
SOFA_2S
10
32000
20
9000
0
INSERT
5
114
8
A-FURN
2
TABLE_DIN
10
22000
20
26000
0
INSERT
5
115
8
A-FURN
2
BED_QN
10
60000
20
18000
0
ENDSEC
0
EOF
