0
SECTION
2
HEADER
9
$INSUNITS
70
4
0
ENDSEC
0
SECTION
2
TABLES
0
TABLE
2
LAYER
0
LAYER
2
A-WALL
70
0
0
LAYER
2
A-ROOM
70
0
0
LAYER
2
A-DOOR
70
0
0
LAYER
2
A-GLAZ
70
0
0
LAYER
2
A-FURN
70
0
0
ENDTAB
0
ENDSEC
0
SECTION
2
BLOCKS
0
BLOCK
2
DOOR_900
70
0
10
0
20
0
0
LWPOLYLINE
5
B01
8
0
90
4
70
1
10
0
20
0
10
900
20
0
10
900
20
50
10
0
20
50
0
ENDBLK
5
X01
8
0
0
BLOCK
2
DOOR_750
70
0
10
0
20
0
0
LWPOLYLINE
5
B02
8
0
90
4
70
1
10
0
20
0
10
750
20
0
10
750
20
50
10
0
20
50
0
ENDBLK
5
X02
8
0
0
BLOCK
2
WIN_1200
70
0
10
0
20
0
0
LWPOLYLINE
5
B03
8
0
90
4
70
1
10
0
20
0
10
1200
20
0
10
1200
20
50
10
0
20
50
0
ENDBLK
5
X03
8
0
0
BLOCK
2
WIN_1500
70
0
10
0
20
0
0
LWPOLYLINE
5
B04
8
0
90
4
70
1
10
0
20
0
10
1500
20
0
10
1500
20
50
10
0
20
50
0
ENDBLK
5
X04
8
0
0
BLOCK
2
SOFA_3S
70
0
10
0
20
0
0
LWPOLYLINE
5
B05
8
0
90
4
70
1
10
0
20
0
10
2100
20
0
10
2100
20
900
10
0
20
900
0
ENDBLK
5
X05
8
0
0
BLOCK
2
SOFA_2S
70
0
10
0
20
0
0
LWPOLYLINE
5
B06
8
0
90
4
70
1
10
0
20
0
10
1500
20
0
10
1500
20
900
10
0
20
900
0
ENDBLK
5
X06
8
0
0
BLOCK
2
TABLE_DIN
70
0
10
0
20
0
0
LWPOLYLINE
5
B07
8
0
90
4
70
1
10
0
20
0
10
1600
20
0
10
1600
20
900
10
0
20
900
0
ENDBLK
5
X07
8
0
0
BLOCK
2
BED_QN
70
0
10
0
20
0
0
LWPOLYLINE
5
B08
8
0
90
4
70
1
10
0
20
0
10
1600
20
0
10
1600
20
2000
10
0
20
2000
0
ENDBLK
5
X08
8
0
0
ENDSEC
0
SECTION
2
ENTITIES
0
HATCH
5
101
8
A-WALL
92
2
10
0
20
-115
10
7700
20
-115
10
7700
20
115
10
0
20
115
0
HATCH
5
103
8
A-WALL
92
2
10
0
20
3485
10
7700
20
3485
10
7700
20
3715
10
0
20
3715
0
HATCH
5
105
8
A-WALL
92
2
10
115
20
0
10
115
20
3600
10
-115
20
3600
10
-115
20
0
0
HATCH
5
107
8
A-WALL
92
2
10
7815
20
0
10
7815
20
3600
10
7585
20
3600
10
7585
20
0
0
HATCH
5
109
8
A-WALL
92
2
10
4615
20
0
10
4615
20
3600
10
4385
20
3600
10
4385
20
0
0
LWPOLYLINE
5
10A
8
A-ROOM
70
1
10
0
20
0
10
4500
20
0
10
4500
20
3600
10
0
20
3600
0
LWPOLYLINE
5
10C
8
A-ROOM
70
1
10
4500
20
0
10
7700
20
0
10
7700
20
3600
10
4500
20
3600
0
INSERT
5
10E
8
A-DOOR
2
DOOR_900
10
2000
20
0
0
INSERT
5
10F
8
A-DOOR
2
DOOR_750
10
4500
20
1800
0
INSERT
5
110
8
A-GLAZ
2
WIN_1200
10
1500
20
3600
0
INSERT
5
111
8
A-GLAZ
2
WIN_1500
10
6000
20
3600
0
INSERT
5
112
8
A-FURN
2
SOFA_3S
10
1200
20
900
0
INSERT
5
113
8
A-FURN
2
SOFA_2S
10
3200
20
900
0
INSERT
5
114
8
A-FURN
2
TABLE_DIN
10
2200
20
2600
0
INSERT
5
115
8
A-FURN
2
BED_QN
10
6000
20
1800
0
ENDSEC
0
EOF
